<svg xmlns="http://www.w3.org/2000/svg" data-name="Layer 1" viewBox="0 0 512 512"><path d="M174 235.3a10.029 10.029 0 0 0 10-10V178.7a10 10 0 0 0-20 0v46.6A10.029 10.029 0 0 0 174 235.3zM174 163.3a10.029 10.029 0 0 0 10-10v-6.6a10 10 0 0 0-20 0v6.6A10.029 10.029 0 0 0 174 163.3z"/><path d="M472.3,221.3l-59.1-54.7A69.906,69.906,0,0,0,365.7,148H335.5v-6.1a50.018,50.018,0,0,0-50-50H67.2a50.018,50.018,0,0,0-50,50V365.8a10.029,10.029,0,0,0,10,10H58.4a53.141,53.141,0,0,0,104.8,0H349.4a53.141,53.141,0,0,0,104.8,0h30.5a10.029,10.029,0,0,0,10-10V272.7A69.617,69.617,0,0,0,472.3,221.3ZM458.7,236H399.5V181.2l.1.1ZM67.2,111.9H285.5a30.088,30.088,0,0,1,30,30V178h0v78.4h0v1.4H37.2V141.9A30.088,30.088,0,0,1,67.2,111.9Zm43.6,288.2A33.1,33.1,0,1,1,143.9,367,33.139,33.139,0,0,1,110.8,400.1Zm0-86.3a53.282,53.282,0,0,0-52,42H37.2v-78H315.5v78H162.8A53.2,53.2,0,0,0,110.8,313.8Zm291,86.3A33.1,33.1,0,1,1,434.9,367,33.139,33.139,0,0,1,401.8,400.1Zm73-44.3h-21a53.19,53.19,0,0,0-104,0H335.5V256.4h0V168h30.2a52.829,52.829,0,0,1,13.8,1.9V236a20.059,20.059,0,0,0,20,20h72.4a49.287,49.287,0,0,1,2.9,16.7Z"/><path d="M110.8 338.5a28.4 28.4 0 1 0 28.4 28.4A28.445 28.445 0 0 0 110.8 338.5zm0 36.9a8.4 8.4 0 1 1 8.4-8.4A8.451 8.451 0 0 1 110.8 375.4zM401.8 338.5a28.4 28.4 0 1 0 28.4 28.4A28.445 28.445 0 0 0 401.8 338.5zm0 36.9a8.4 8.4 0 1 1 8.4-8.4A8.451 8.451 0 0 1 401.8 375.4z"/></svg>