<svg xmlns="http://www.w3.org/2000/svg" viewBox="0 0 64 64"><path d="M52.443,9.92813a1.02494,1.02494,0,0,0,0-1.42,12.01969,12.01969,0,0,0-16.97,0l-2.12,2.13,9.19,9.18994Z"/><path d="M44.67381,40.34384c12.91845.15625,21.3609-14.40552,14.62042-25.60461a.99934.99934,0,0,0-1.56818-.1991L46.07566,26.19052,27.6909,7.80576a.99991.99991,0,0,0-1.69336.543l-.81159,4.87012c-1.06665-.10638-2.113,1.37219-2.81121,1.99842a2.00289,2.00289,0,0,0,1.9215,3.34045l-1.06567,6.39477L5.74168,39.52646a10.13211,10.13211,0,1,0,14.27,14.27032l14.216-17.05865A16.93914,16.93914,0,0,0,44.67381,40.34384ZM18.47557,52.51669c-4.91388,5.9455-14.75263,2.12806-14.371-5.5744A8.148,8.148,0,0,1,7.022,41.06357L24.09422,26.836l8.60791,8.6084Zm11.33691-27.0332a3,3,0,0,1,4.24274-4.24213l4.24261,4.24213a2.99985,2.99985,0,1,1-4.24267,4.24219Z"/><path d="M12.13475 42.40341c-6.62519.20807-6.58613 9.81226.00012 9.998C18.7227 52.21494 18.7581 42.61008 12.13475 42.40341zM56.89305 41.28812a1.03276 1.03276 0 00-.71-.29h-6.62a1.03268 1.03268 0 00-.71.29l-4.69 4.69a1.0325 1.0325 0 00-.29.71v6.62a1.03251 1.03251 0 00.29.71l4.69 4.69a1.03251 1.03251 0 00.71.29h6.62a1.03259 1.03259 0 00.71-.29l4.69-4.69a1.03276 1.03276 0 00.29-.71v-6.62a1.03276 1.03276 0 00-.29-.71zm-4.02 13.71c-6.60865-.206-6.60712-9.795.00012-10C59.48173 45.20413 59.48014 54.79312 52.873 54.99814zM37.77305 44.28812a1.03272 1.03272 0 00-.71-.29h-5.38a1.03272 1.03272 0 00-.71.29l-3.81 3.81a1.03255 1.03255 0 00-.29.71v5.38a1.03247 1.03247 0 00.29.71l3.81 3.81a1.03255 1.03255 0 00.71.29h5.38a1.03255 1.03255 0 00.71-.29l3.81-3.81a1.03273 1.03273 0 00.29-.71v-5.38a1.0328 1.0328 0 00-.29-.71zm-3.4 10.71a3.50014 3.50014 0 01.00012-7A3.50014 3.50014 0 0134.373 54.99814zM21.94389 14.78641l1.41418-1.41425a2.00021 2.00021 0 00-2.82849-2.82837L19.11546 11.958A2.00021 2.00021 0 0021.94389 14.78641z"/></svg>