<svg xmlns="http://www.w3.org/2000/svg" width="24" height="24" fill="none" viewBox="0 0 24 24"><path fill="#292D32" fill-rule="evenodd" d="M7.75 14.5C7.75 12.4289 9.42893 10.75 11.5 10.75C13.5711 10.75 15.25 12.4289 15.25 14.5C15.25 15.2643 15.0213 15.9752 14.6287 16.5681L15.5303 17.4697C15.8232 17.7626 15.8232 18.2374 15.5303 18.5303C15.2374 18.8232 14.7626 18.8232 14.4697 18.5303L13.568 17.6287C12.9752 18.0213 12.2643 18.25 11.5 18.25C9.42893 18.25 7.75 16.5711 7.75 14.5ZM11.5 12.25C10.2574 12.25 9.25 13.2574 9.25 14.5C9.25 15.7426 10.2574 16.75 11.5 16.75C12.7426 16.75 13.75 15.7426 13.75 14.5C13.75 13.2574 12.7426 12.25 11.5 12.25Z" clip-rule="evenodd"/><path fill="#292D32" fill-rule="evenodd" d="M14.1748 2.15497C13.373 1.74867 12.4547 1.74919 11.1345 1.74994L10.4451 1.75001C9.07754 1.74999 7.97522 1.74997 7.10825 1.86653C6.20814 1.98755 5.45027 2.24644 4.84835 2.84836C4.24643 3.45027 3.98754 4.20815 3.86652 5.10826C3.74996 5.97522 3.74998 7.07754 3.75 8.44513V15.5549C3.74998 16.9225 3.74996 18.0248 3.86652 18.8918C3.98754 19.7919 4.24643 20.5497 4.84835 21.1517C5.45027 21.7536 6.20814 22.0125 7.10825 22.1335C7.97522 22.25 9.07754 22.25 10.4451 22.25H13.5549C14.9225 22.25 16.0248 22.25 16.8918 22.1335C17.7919 22.0125 18.5497 21.7536 19.1517 21.1517C19.7536 20.5497 20.0125 19.7919 20.1335 18.8918C20.25 18.0248 20.25 16.9225 20.25 15.5549L20.25 11.8518C20.2504 10.9865 20.2506 10.3857 20.0639 9.81541C19.8772 9.24509 19.5217 8.76075 19.0098 8.06322L16.2994 4.36723C15.5193 3.30214 14.9766 2.56127 14.1748 2.15497ZM12.25 3.26444L12.25 3.55488C12.25 4.92245 12.25 6.0248 12.3665 6.89176C12.4875 7.79187 12.7464 8.54974 13.3484 9.15166C13.9503 9.75357 14.7081 10.0125 15.6083 10.1335C16.407 10.2409 17.4056 10.2493 18.6274 10.25C18.6312 10.2606 18.6348 10.2714 18.6383 10.2821C18.7414 10.597 18.75 10.9429 18.75 11.9642V15.5C18.75 16.9354 18.7484 17.9365 18.6469 18.6919C18.5482 19.4257 18.3678 19.8142 18.091 20.091C17.8142 20.3678 17.4257 20.5482 16.6919 20.6469C15.9365 20.7484 14.9354 20.75 13.5 20.75H10.5C9.06459 20.75 8.06347 20.7484 7.30812 20.6469C6.57435 20.5482 6.18577 20.3678 5.90901 20.091C5.63225 19.8142 5.4518 19.4257 5.35315 18.6919C5.25159 17.9365 5.25 16.9354 5.25 15.5V8.50001C5.25 7.06459 5.25159 6.06348 5.35315 5.30813C5.4518 4.57435 5.63225 4.18578 5.90901 3.90902C6.18577 3.63225 6.57435 3.45181 7.30812 3.35315C8.06347 3.2516 9.06459 3.25001 10.5 3.25001H10.9596C11.5005 3.25001 11.9175 3.25227 12.25 3.26444ZM17.6498 8.74527C16.8968 8.73676 16.3003 8.71303 15.8081 8.64686C15.0743 8.54821 14.6858 8.36776 14.409 8.091C14.1322 7.81423 13.9518 7.42566 13.8531 6.69189C13.7552 5.96357 13.7502 5.00676 13.75 3.65245C14.0909 3.91301 14.4487 4.38008 15.1932 5.39535L17.6498 8.74527Z" clip-rule="evenodd"/></svg>