<svg xmlns="http://www.w3.org/2000/svg" viewBox="0 0 64 64"><g data-name="Layer 2"><line x1="3" x2="15" y1="37" y2="37" fill="none" stroke="#231916" stroke-linecap="round" stroke-linejoin="round" stroke-width="2"/><rect width="8" height="12" x="5" y="21" fill="none" stroke="#231916" stroke-linecap="round" stroke-linejoin="round" stroke-width="2"/><circle cx="13" cy="49" r="6" fill="none" stroke="#231916" stroke-linecap="round" stroke-linejoin="round" stroke-width="2"/><circle cx="51" cy="49" r="6" fill="none" stroke="#231916" stroke-linecap="round" stroke-linejoin="round" stroke-width="2"/><polyline fill="none" stroke="#231916" stroke-linecap="round" stroke-linejoin="round" stroke-width="2" points="1 36 3 36 3 38 1 38"/><line x1="45" x2="19" y1="49" y2="49" fill="none" stroke="#231916" stroke-linecap="round" stroke-linejoin="round" stroke-width="2"/><path fill="none" stroke="#231916" stroke-linecap="round" stroke-linejoin="round" stroke-width="2" d="M7 49H5a4 4 0 0 1-4-4V17a4 4 0 0 1 4-4H15a4 4 0 0 1 4 4M57 41h2a4 4 0 0 0 4-4V13a4 4 0 0 0-4-4H23a4 4 0 0 0-4 4V37a4 4 0 0 0 4 4H45a10 10 0 0 1 12 0z"/><polyline fill="none" stroke="#231916" stroke-linecap="round" stroke-linejoin="round" stroke-width="2" points="57 49 63 49 63 37"/></g></svg>